<svg width="12" height="6" viewBox="0 0 12 6" fill="none" xmlns="http://www.w3.org/2000/svg">
<path d="M11.354 0.85354L6.35403 5.85354C6.30759 5.90003 6.25245 5.93691 6.19175 5.96207C6.13105 5.98723 6.06599 6.00018 6.00028 6.00018C5.93457 6.00018 5.86951 5.98723 5.80881 5.96207C5.74811 5.93691 5.69296 5.90003 5.64653 5.85354L0.646528 0.85354C0.552708 0.75972 0.5 0.632472 0.5 0.49979C0.5 0.367108 0.552708 0.23986 0.646528 0.14604C0.740348 0.0522192 0.867596 -0.000488281 1.00028 -0.000488281C1.13296 -0.000488281 1.26021 0.0522192 1.35403 0.14604L6.00028 4.79292L10.6465 0.14604C10.693 0.0995844 10.7481 0.0627342 10.8088 0.0375929C10.8695 0.0124516 10.9346 -0.000488281 11.0003 -0.000488281C11.066 -0.000488281 11.131 0.0124516 11.1917 0.0375929C11.2524 0.0627342 11.3076 0.0995844 11.354 0.14604C11.4005 0.192495 11.4373 0.247645 11.4625 0.308342C11.4876 0.369038 11.5006 0.434092 11.5006 0.49979C11.5006 0.565487 11.4876 0.630542 11.4625 0.691238C11.4373 0.751935 11.4005 0.807085 11.354 0.85354Z" fill="#667185"/>
</svg>
